<?xml version="1.0" standalone="no"?>
<!DOCTYPE svg PUBLIC "-//W3C//DTD SVG 20010904//EN"
 "http://www.w3.org/TR/2001/REC-SVG-20010904/DTD/svg10.dtd">
<svg version="1.0" xmlns="http://www.w3.org/2000/svg"
 width="400.000000pt" height="400.000000pt" viewBox="0 0 400.000000 400.000000"
 preserveAspectRatio="xMidYMid meet">

<g transform="translate(0.000000,400.000000) scale(0.100000,-0.100000)"
fill="#000000" stroke="none">
<path d="M0 2000 l0 -2000 2000 0 2000 0 0 2000 0 2000 -2000 0 -2000 0 0
-2000z m2270 1251 c116 -26 169 -45 285 -101 139 -66 185 -101 185 -142 0 -27
-20 -52 -152 -184 -83 -84 -156 -150 -162 -147 -6 3 -8 3 -4 -2 12 -13 -12
-35 -39 -35 -14 0 -66 15 -117 34 -127 47 -239 62 -347 47 -164 -24 -260 -64
-376 -158 -24 -19 -48 -31 -54 -27 -8 5 -9 3 -4 -5 7 -13 -30 -56 -50 -56 -5
-1 -9 -6 -8 -13 5 -21 -83 -137 -101 -134 -22 4 -31 -24 -18 -54 7 -13 8 -24
3 -24 -4 0 -13 -10 -20 -22 -11 -23 -11 -17 4 32 6 20 5 23 -6 13 -10 -10 -74
-13 -250 -13 -229 0 -238 1 -244 20 -3 11 -3 24 0 30 3 5 4 10 1 10 -5 0 -30
-51 -49 -100 -4 -8 -4 3 0 25 3 22 9 45 13 50 4 6 7 17 7 26 -1 33 26 109 36
102 6 -3 7 -1 3 6 -9 15 3 53 15 46 5 -3 6 0 3 8 -7 19 54 141 116 232 207
304 527 503 892 555 98 14 340 3 438 -19z m-103 -895 c77 -35 163 -122 200
-203 23 -50 27 -72 27 -158 1 -92 -1 -105 -31 -167 -145 -306 -571 -313 -719
-13 -77 155 -53 322 64 447 89 95 173 129 307 125 73 -3 102 -8 152 -31z
m-836 -49 c-1 -4 -1 -15 -1 -24 0 -15 -2 -16 -10 -3 -13 20 -13 43 1 38 6 -2
10 -7 10 -11z m-551 -64 c-11 -17 -11 -17 -6 0 3 10 6 24 7 30 0 9 2 9 5 0 3
-7 0 -20 -6 -30z m-13 -55 c-3 -7 -5 -2 -5 12 0 14 2 19 5 13 2 -7 2 -19 0
-25z m20 0 c-3 -8 -6 -5 -6 6 -1 11 2 17 5 13 3 -3 4 -12 1 -19z m-50 -20 c-3
-8 -6 -5 -6 6 -1 11 2 17 5 13 3 -3 4 -12 1 -19z m40 -45 c-3 -10 -5 -4 -5 12
0 17 2 24 5 18 2 -7 2 -21 0 -30z m-20 -35 c-3 -8 -6 -5 -6 6 -1 11 2 17 5 13
3 -3 4 -12 1 -19z m582 -388 c11 -24 11 -24 -3 -6 -9 11 -16 24 -16 30 0 12 5
7 19 -24z m364 -365 c100 -44 174 -58 297 -58 123 0 197 14 297 58 92 41 88
44 275 -142 158 -158 168 -169 168 -205 0 -33 -5 -42 -42 -69 -103 -75 -296
-153 -460 -186 -104 -21 -352 -23 -458 -4 -159 28 -373 114 -477 190 -38 27
-43 36 -43 69 0 36 10 47 168 205 187 186 183 183 275 142z"/>
<path d="M855 2419 c-4 -6 -5 -12 -2 -15 2 -3 7 2 10 11 7 17 1 20 -8 4z"/>
<path d="M781 2354 c0 -11 3 -14 6 -6 3 7 2 16 -1 19 -3 4 -6 -2 -5 -13z"/>
<path d="M1286 2355 c4 -8 8 -15 10 -15 2 0 4 7 4 15 0 8 -4 15 -10 15 -5 0
-7 -7 -4 -15z"/>
<path d="M1330 2349 c0 -5 5 -7 10 -4 6 3 10 8 10 11 0 2 -4 4 -10 4 -5 0 -10
-5 -10 -11z"/>
</g>
</svg>
